<?xml version="1.0" encoding="utf-8"?>
<!-- Generator: Adobe Illustrator 21.0.0, SVG Export Plug-In . SVG Version: 6.00 Build 0)  -->
<svg version="1.1" id="Capa_1" xmlns="http://www.w3.org/2000/svg" xmlns:xlink="http://www.w3.org/1999/xlink" x="0px" y="0px"
	 viewBox="0 0 500 500" style="enable-background:new 0 0 500 500;" xml:space="preserve">
<style type="text/css">
	.st0{fill:#FE3E01;}
	.st1{fill:#FEFDFD;}
</style>
<title>favicon</title>
<g>
	<path class="st0" d="M290.1,18.7c6.7,0,13.4,0,20,0c0.4,0.9,1.3,0.7,2,0.7c14.5,1.2,28.7,4.4,42,10.2
		C399,49.1,428,82.2,439.4,130.2c1.2,4.9,1,10.1,2.6,14.9c0,7.5,0,14.9,0,22.4c-0.2,0.3-0.7,0.5-0.7,0.8
		c-2.1,20.2-7.9,39.2-19.1,56.3c-1,1.5-0.4,2.6,0.3,3.8c8.3,16.5,13.1,34,13.6,52.5c1.1,46.9-16.9,84.3-56.2,110.3
		c-35.6,23.6-72,46.1-108,69c-14.2,9.1-29.6,15.2-46.2,18.5c-5.5,1.1-11.1,1-16.5,2.6c-6.7,0-13.4,0-20,0c-0.4-0.9-1.3-0.7-2-0.8
		c-9.6-0.9-19.1-2.5-28.3-5.5c-49.9-16.5-83.1-49.2-97.2-100.4c-1.6-5.8-1.6-11.8-3.6-17.5c0-9,0-18,0-27c0.6-0.2,0.7-0.7,0.8-1.2
		c2.1-19,8-36.8,18.5-52.8c1-1.6,0.7-2.8,0-4.2c-7.5-14.5-12.1-30-13.2-46.3c-3.3-48.6,13.9-88.1,54.5-115.5
		c36.2-24.5,73.5-47.4,110.4-71c13.8-8.8,28.7-14.7,44.8-17.7C279.1,20.5,284.6,19.6,290.1,18.7z M117.1,315.4
		c-9.4,28.5-6.8,54.6,11,78.6c25.9,34.9,74.3,45.3,110.3,22.9c37.3-23.2,74.5-46.5,111-70.8c26.1-17.3,36.6-43,32-73.8
		c-8.9-58.8-77.5-91.4-128.9-57.8c-12.5,8.1-25.1,16-37.6,24.1c-4.4,2.8-9.1,4.6-14.4,4.8c-11.4,0.4-21.7-6.8-25.1-17.3
		c-3.4-10.8,0.5-20.9,10.8-27.4c34.8-22.3,69.6-44.5,104.5-66.7c9.1-5.8,18.7-6.4,28-0.7c9.1,5.5,12.8,14.1,12,24.5
		c-0.2,2.1,0.2,2.9,2.3,3.5c7.8,2.3,15.3,5.2,22.5,8.8c8.6,4.2,16.5,9.4,24.2,14.9c1.3,0.9,2.1,2.2,3.1-0.6
		c4.6-13.1,6.4-26.4,4.1-40.2c-9.7-58.3-77.4-90.4-128.4-57.5c-35.2,22.6-70.7,44.8-105.8,67.5c-27.8,18-39.4,44.1-34.6,76.6
		c8.5,57.9,77.8,89.3,127.3,57.9c13.4-8.5,26.8-17.3,40.3-25.6c12.3-7.7,28-4,35.5,7.9c5.7,9.1,6,24.2-8.9,33.5
		c-34.7,21.7-69.1,44-103.6,66c-9,5.7-18.4,6.4-27.7,1c-9.4-5.5-13.5-14.2-12.6-25c0.2-2.4-0.7-3-2.7-3.6c-6.5-2-12.8-4.4-19-7.2
		C136.4,328.8,126.8,322.5,117.1,315.4z"/>
	<path class="st1" d="M117.1,315.4c9.7,7.1,19.3,13.4,29.7,18.1c6.2,2.8,12.5,5.2,19,7.2c2,0.6,2.9,1.2,2.7,3.6
		c-0.9,10.8,3.2,19.4,12.6,25c9.3,5.5,18.7,4.8,27.7-1c34.5-22,68.9-44.3,103.6-66c14.8-9.3,14.6-24.4,8.9-33.5
		c-7.5-11.9-23.2-15.6-35.5-7.9c-13.5,8.4-26.8,17.1-40.3,25.6c-49.5,31.4-118.8,0-127.3-57.9c-4.8-32.6,6.8-58.6,34.6-76.6
		c35.1-22.7,70.6-44.9,105.8-67.5c51.1-32.9,118.7-0.8,128.4,57.5c2.3,13.7,0.5,27.1-4.1,40.2c-1,2.8-1.9,1.5-3.1,0.6
		c-7.7-5.6-15.6-10.8-24.2-14.9c-7.3-3.6-14.8-6.5-22.5-8.8c-2.1-0.6-2.5-1.4-2.3-3.5c0.8-10.5-2.9-19-12-24.5
		c-9.4-5.7-18.9-5.1-28,0.7c-34.9,22.2-69.7,44.5-104.5,66.7c-10.3,6.6-14.2,16.7-10.8,27.4c3.4,10.6,13.7,17.7,25.1,17.3
		c5.3-0.2,10-1.9,14.4-4.8c12.5-8,25.2-15.9,37.6-24.1c51.4-33.6,120-1,128.9,57.8c4.6,30.8-5.9,56.4-32,73.8
		c-36.5,24.3-73.7,47.7-111,70.8c-36,22.4-84.5,11.9-110.3-22.9C110.3,370,107.7,343.9,117.1,315.4z"/>
</g>
</svg>
